#!OML:ASF I:\Actors\actors\Patient Classification 2\Patient 1\Session 1\actor1.ASF
:FULLY-SPECIFIED
:DEGREES
449
root -0.451755 18.7375 5.14455 1.3618 -0.12493 -1.15595
lowerback 4.24046 1.13442 -1.75811
upperback 1.20437 1.4504 0.984717
thorax -1.20879 0.726989 1.92047
lowerneck -12.4632 -2.88459 -2.17003
upperneck 35.6357 -4.64675 2.61926
head 14.4462 -1.93175 0.726545
rclavicle 1.6291e-014 7.95139e-015
rhumerus -27.3426 31.1552 -98.6171
rradius 86.3649
rwrist 25.2632
rhand -11.1229 -63.4901
rfingers 7.12502
rthumb 14.9021 92.9341
lclavicle 1.6291e-014 7.95139e-015
lhumerus 17.3514 -47.6319 61.3691
lradius 66.8218
lwrist -3.92733
lhand 19.4015 -26.1921
lfingers 7.12502
lthumb 43.9771 -2.30066
rfemur 0 0 0
rtibia 0
rfoot 0 0
rtoes 0
lfemur -6.83719 -5.20391 -13.6975
ltibia 22.6864
lfoot -20.7208 13.6592
ltoes -55.3229
450
root -0.454391 18.7384 5.14445 1.35795 0.172386 -1.18856
lowerback 4.19094 1.02688 -1.69633
upperback 1.24852 1.30973 0.926292
thorax -1.12652 0.655447 1.83471
lowerneck -12.5155 -2.88271 -2.00453
upperneck 35.5857 -4.68234 2.60085
head 14.4305 -1.92756 0.683095
rclavicle -6.99163e-015 -7.45443e-015
rhumerus -28.3922 31.3399 -99.0559
rradius 87.1773
rwrist 25.1623
rhand -10.4384 -63.5506
rfingers 7.12502
rthumb 15.5615 92.9446
lclavicle -6.99163e-015 -7.45443e-015
lhumerus 17.4748 -47.5092 61.2529
lradius 66.7908
lwrist -3.93665
lhand 19.4945 -26.29
lfingers 7.12502
lthumb 44.0639 -2.43102
rfemur 0 0 0
rtibia 0
rfoot 0 0
rtoes 0
lfemur -6.92378 -5.31146 -13.6327
ltibia 22.7168
lfoot -20.6289 13.5321
ltoes -55.3945
451
root -0.455892 18.7393 5.14439 1.35339 0.463774 -1.21189
lowerback 4.13776 0.898874 -1.63
upperback 1.28875 1.14222 0.882567
thorax -1.04588 0.570632 1.76255
lowerneck -12.5591 -2.86841 -1.96366
upperneck 35.5558 -4.68424 2.6347
head 14.4265 -1.91869 0.688508
rclavicle 1.45303e-015 8.63782e-015
rhumerus -29.4303 31.5101 -99.5433
rradius 87.894
rwrist 25.0783
rhand -10.1147 -63.4147
rfingers 7.12502
rthumb 15.8732 92.7841
lclavicle 1.45303e-015 8.63782e-015
lhumerus 17.4996 -47.3401 61.201
lradius 66.78
lwrist -4.02282
lhand 19.4989 -26.2898
lfingers 7.12502
lthumb 44.068 -2.43233
rfemur 0 0 0
rtibia 0
rfoot 0 0
rtoes 0
lfemur -7.00441 -5.47707 -13.5878
ltibia 22.7423
lfoot -20.5683 13.439
ltoes -55.4069
452
root -0.457595 18.7395 5.14599 1.3275 0.691125 -1.23173
lowerback 4.07749 0.782443 -1.61193
upperback 1.33015 0.988873 0.889167
thorax -0.962955 0.492907 1.76815
lowerneck -12.5558 -2.85016 -2.01583
upperneck 35.5044 -4.65031 2.66058
head 14.4031 -1.90879 0.713383
rclavicle -6.28657e-015 -2.77677e-015
rhumerus -30.4086 31.6073 -100.001
rradius 88.4601
rwrist 25.1011
rhand -9.7591 -63.4731
rfingers 7.12502
rthumb 16.2156 92.815
lclavicle -6.28657e-015 -2.77677e-015
lhumerus 17.446 -47.1598 61.2472
lradius 66.7796
lwrist -4.14305
lhand 19.3651 -26.1977
lfingers 7.12502
lthumb 43.9432 -2.29365
rfemur 0 0 0
rtibia 0
rfoot 0 0
rtoes 0
lfemur -7.03565 -5.59885 -13.5544
ltibia 22.7601
lfoot -20.5077 13.3552
ltoes -55.4469
453
root -0.458763 18.7395 5.14638 1.2996 0.832096 -1.2408
lowerback 4.03677 0.72103 -1.62276
upperback 1.37007 0.907402 0.898926
thorax -0.896072 0.451235 1.78907
lowerneck -12.5674 -2.83287 -1.93522
upperneck 35.4327 -4.60742 2.55864
head 14.3652 -1.89412 0.663889
rclavicle 2.46617e-015 1.68718e-014
rhumerus -31.2671 31.6917 -100.501
rradius 88.7557
rwrist 24.5687
rhand -12.2202 -62.5776
rfingers 7.12502
rthumb 13.8448 92.0969
lclavicle 2.46617e-015 1.68718e-014
lhumerus 17.4684 -47.0786 61.2628
lradius 66.7675
lwrist -4.1834
lhand 19.2626 -26.1714
lfingers 7.12502
lthumb 43.8476 -2.23189
rfemur 0 0 0
rtibia 0
rfoot 0 0
rtoes 0
lfemur -7.04862 -5.62052 -13.534
ltibia 22.771
lfoot -20.4416 13.2571
ltoes -55.5005
454
root -0.459963 18.7392 5.14554 1.27314 0.899028 -1.23282
lowerback 4.01032 0.679747 -1.6764
upperback 1.40047 0.851166 0.934586
thorax -0.848949 0.422342 1.85907
lowerneck -12.6157 -2.79764 -1.91791
upperneck 35.4279 -4.52226 2.45726
head 14.3672 -1.86838 0.632224
rclavicle 2.74474e-015 1.1208e-014
rhumerus -32.0841 32.1298 -101.15
rradius 88.7774
rwrist 22.5273
rhand -15.4595 -61.8403
rfingers 7.12502
rthumb 10.7215 91.5467
lclavicle 2.74474e-015 1.1208e-014
lhumerus 17.4152 -46.9933 61.3699
lradius 66.741
lwrist -4.16211
lhand 19.2266 -26.2397
lfingers 7.12502
lthumb 43.814 -2.28774
rfemur 0 0 0
rtibia 0
rfoot 0 0
rtoes 0
lfemur -7.04597 -5.63883 -13.5355
ltibia 22.781
lfoot -20.4299 13.197
ltoes -55.4548
455
root -0.461864 18.7387 5.1444 1.25462 0.878703 -1.2509
lowerback 3.97541 0.666534 -1.71696
upperback 1.44418 0.833311 1.00172
thorax -0.785317 0.412261 1.95236
lowerneck -12.7008 -2.77754 -2.05351
upperneck 35.4243 -4.46007 2.4782
head 14.3875 -1.85594 0.67322
rclavicle 8.37225e-015 1.29707e-014
rhumerus -32.2685 32.1378 -101.291
rradius 88.6149
rwrist 22.1757
rhand -14.4008 -62.663
rfingers 7.12502
rthumb 11.7426 92.3139
lclavicle 8.37225e-015 1.29707e-014
lhumerus 17.3774 -46.8977 61.4914
lradius 66.7173
lwrist -4.12736
lhand 19.2278 -26.1988
lfingers 7.12502
lthumb 43.815 -2.24725
rfemur 0 0 0
rtibia 0
rfoot 0 0
rtoes 0
lfemur -7.02407 -5.66782 -13.5129
ltibia 22.7915
lfoot -20.4654 13.2142
ltoes -55.3966
456
root -0.461367 18.7388 5.14154 1.26956 0.773298 -1.29578
lowerback 3.95386 0.705348 -1.67362
upperback 1.47702 0.887386 1.04175
thorax -0.742106 0.438567 1.96707
lowerneck -12.8404 -2.78233 -2.08067
upperneck 35.4305 -4.44686 2.44826
head 14.4217 -1.85594 0.665841
rclavicle 1.14643e-014 1.78906e-015
rhumerus -31.736 31.5065 -100.928
rradius 88.1561
rwrist 23.8106
rhand -11.6159 -62.801
rfingers 7.12502
rthumb 14.4272 92.2795
lclavicle 1.14643e-014 1.78906e-015
lhumerus 17.4699 -46.8937 61.4953
lradius 66.6861
lwrist -4.13864
lhand 19.2895 -26.155
lfingers 7.12502
lthumb 43.8727 -2.22481
rfemur 0 0 0
rtibia 0
rfoot 0 0
rtoes 0
lfemur -7.02518 -5.65525 -13.4723
ltibia 22.7906
lfoot -20.4763 13.3118
ltoes -55.4413
457
root -0.459013 18.7388 5.13818 1.27465 0.605695 -1.28669
lowerback 3.96585 0.761817 -1.66179
upperback 1.47761 0.963064 1.06074
thorax -0.751874 0.47647 1.97626
lowerneck -12.9317 -2.78143 -2.0767
upperneck 35.4711 -4.41263 2.35418
head 14.4571 -1.85176 0.630921
rclavicle -6.49156e-016 -8.59744e-015
rhumerus -31.4819 31.7105 -101.126
rradius 87.3854
rwrist 22.1398
rhand -14.8962 -62.7394
rfingers 7.12502
rthumb 11.2649 92.4169
lclavicle -6.49156e-016 -8.59744e-015
lhumerus 17.4441 -46.911 61.5602
lradius 66.6527
lwrist -4.25766
lhand 19.2618 -26.2886
lfingers 7.12502
lthumb 43.8468 -2.34886
rfemur 0 0 0
rtibia 0
rfoot 0 0
rtoes 0
lfemur -6.99976 -5.5638 -13.5003
ltibia 22.7759
lfoot -20.4686 13.4124
ltoes -55.5113
